<?xml version="1.0" standalone="no"?>
<!DOCTYPE svg PUBLIC "-//W3C//DTD SVG 20010904//EN"
 "http://www.w3.org/TR/2001/REC-SVG-20010904/DTD/svg10.dtd">
<svg version="1.0" xmlns="http://www.w3.org/2000/svg"
 width="128.000000pt" height="128.000000pt" viewBox="0 0 128.000000 128.000000"
 preserveAspectRatio="xMidYMid meet">

<g transform="translate(0.000000,128.000000) scale(0.100000,-0.100000)"
fill="#000000" stroke="none">
<path d="M743 985 c-145 -40 -270 -76 -280 -79 -13 -5 1 -17 56 -48 l74 -40
74 21 c75 22 113 21 113 -3 0 -7 -124 -133 -275 -281 -151 -147 -275 -271
-275 -276 0 -24 32 -2 105 71 44 44 85 80 92 80 28 0 10 -31 -47 -83 -54 -49
-73 -77 -52 -77 4 0 120 113 257 250 137 138 253 250 256 250 4 0 1 -30 -6
-67 l-13 -68 47 -57 c38 -48 47 -55 53 -40 10 25 90 492 86 507 -2 9 -76 -8
-265 -60z m211 -27 c-22 -132 -41 -212 -51 -216 -16 -5 -16 20 1 123 8 44 13
81 12 82 -1 1 -62 -13 -136 -32 -148 -38 -154 -39 -145 -26 3 6 -10 7 -32 4
-22 -3 -34 -2 -30 3 10 10 332 101 365 103 21 1 22 -2 16 -41z"/>
<path d="M320 715 c-69 -69 -91 -98 -83 -106 8 -8 22 -1 51 25 22 20 46 36 54
36 24 0 120 104 112 123 -12 33 -40 16 -134 -78z"/>
<path d="M373 618 c-116 -115 -150 -158 -127 -158 4 0 26 18 50 40 24 22 49
40 56 40 8 0 53 40 102 89 62 62 87 94 83 105 -4 9 -12 16 -18 16 -7 0 -72
-59 -146 -132z"/>
<path d="M413 560 c-158 -155 -189 -190 -164 -190 11 0 361 340 361 351 0 26
-40 -7 -197 -161z"/>
<path d="M540 416 c-91 -90 -164 -167 -162 -170 5 -14 19 -5 90 60 41 38 87
76 101 85 14 9 59 51 100 92 67 68 81 97 48 97 -7 0 -86 -74 -177 -164z"/>
<path d="M621 410 c-127 -122 -161 -161 -148 -166 12 -4 59 34 172 142 85 82
155 157 155 167 0 9 -3 17 -7 16 -5 0 -82 -72 -172 -159z"/>
<path d="M731 396 c-98 -98 -114 -126 -73 -126 23 0 226 205 218 219 -16 25
-47 6 -145 -93z"/>
</g>
</svg>
